<?xml version="1.0" encoding="iso-8859-1"?>
<!-- Generator: Adobe Illustrator 19.0.1, SVG Export Plug-In . SVG Version: 6.00 Build 0)  -->
<svg version="1.1" xmlns="http://www.w3.org/2000/svg" xmlns:xlink="http://www.w3.org/1999/xlink" x="0px" y="0px"
	 viewBox="0 0 128 128" style="enable-background:new 0 0 128 128;" xml:space="preserve">
<g id="_x34_">
	<path id="_x34__1_" style="fill:#262626;" d="M71.493,83.955c0.333-0.311,0.656-0.634,0.989-0.967
		c0.411-0.389,0.823-0.801,1.234-1.212c19.01-19.01,32.506-39.598,40.521-53.617l0.167-0.278
		c7.604-13.318,11.261-22.356,11.417-22.734L127.9,0l-5.147,2.079c-0.378,0.156-9.405,3.824-22.734,11.417
		C86,21.511,65.278,35.052,46.135,54.195l-1.323,1.323c-0.345,0.345-0.678,0.678-1.001,1.023
		c-5.625-1.245-15.675-2.512-20.611,2.423C16.108,66.057,0.1,82.065,0.1,82.065s13.518,0,21.011,0l-0.289,0.356
		c-1.156,1.267-3.391,5.57,5.814,15.286c-3.991,5.303-6.981,9.405-6.981,9.405s4.102-2.99,9.405-6.981
		c9.627,9.16,14.552,7.926,15.875,7.315l1.101-0.856c0,7.404,0,21.411,0,21.411s16.008-16.008,23.101-23.101
		C74.172,99.863,72.749,89.524,71.493,83.955z M69.169,79.63c-9.483,9.416-16.208,15.252-24.624,22.134l-1.668,1.356
		c-0.856,0.011-4.013-0.345-9.983-5.848C40.388,91.581,48.859,85,51.794,82.065c5.681-5.681,8.705-11.884,6.748-13.841
		c-1.957-1.957-8.16,1.067-13.841,6.748c-2.935,2.935-9.516,11.406-15.208,18.899c-5.214-5.681-5.058-8.126-5.003-8.493l1.49-1.823
		c6.937-8.493,12.784-15.252,22.189-24.724l1.301-1.301c18.665-18.665,38.909-31.928,52.672-39.798
		c1.301,2.701,4.513,6.477,7.997,7.997c-7.904,13.752-21.315,34.27-39.758,52.713C69.981,78.841,69.592,79.23,69.169,79.63z
		 M90.245,37.657c-2.883-2.883-2.883-7.574,0.001-10.457c2.883-2.883,7.574-2.884,10.457-0.001
		c2.883,2.883,2.883,7.574-0.001,10.457C97.819,40.54,93.129,40.54,90.245,37.657z M98.48,29.422
		c-1.657-1.657-4.353-1.657-6.011,0.001c-1.657,1.657-1.657,4.354-0.001,6.011c1.657,1.657,4.353,1.657,6.011-0.001
		C100.136,33.776,100.136,31.079,98.48,29.422z M76.064,51.838c-2.883-2.883-2.883-7.574,0.001-10.457
		c2.883-2.883,7.574-2.884,10.457-0.001c2.883,2.883,2.883,7.574-0.001,10.457C83.638,54.721,78.947,54.722,76.064,51.838z
		 M84.299,43.604c-1.657-1.657-4.353-1.657-6.011,0.001c-1.657,1.657-1.657,4.354-0.001,6.011c1.657,1.657,4.353,1.657,6.011-0.001
		C85.955,47.957,85.955,45.26,84.299,43.604z"/>
</g>
<g id="Layer_1">
</g>
</svg>
