<svg viewBox="0 0 380 380" fill="currentColor" stroke="currentColor" xmlns="http://www.w3.org/2000/svg">
<path d="M344.8 236.999C319.8 239.999 294.8 241.999 269.8 234.999C301.8 232.999 332.8 219.999 355.8 196.999C362.8 188.999 368.8 180.999 372.8 170.999C376.8 158.999 379.8 145.999 379.8 132.999C378.8 116.999 371.8 94.9992 352.8 97.9992C343.8 98.9992 336.8 104.999 331.8 112.999C325.8 122.999 319.8 129.999 312.8 137.999C301.8 148.999 289.8 159.999 274.8 165.999C298.8 141.999 311.8 105.999 310.8 71.9992C309.8 53.9992 301.8 37.9992 290.8 22.9992C279.8 9.99921 262.8 -3.00079 245.8 2.99921C229.8 7.99921 233.8 29.9992 236.8 43.9992C238.8 60.9992 239.8 76.9992 236.8 94.9992C235.8 99.9992 235.8 104.999 232.8 108.999C229.8 66.9992 208.8 23.9992 168.8 7.99921C150.8 -0.000793934 129.8 -3.00079 110.8 4.99921C103.8 7.99921 95.7998 11.9992 94.7998 20.9992C92.7998 35.9992 106.8 45.9992 118.8 52.9992C121.8 55.9992 124.8 57.9992 128.8 60.9992C143.8 72.9992 155.8 87.9992 164.8 104.999C142.8 83.9992 113.8 72.9992 83.7998 69.9992C58.7998 67.9992 33.7998 77.9992 15.7998 96.9992C5.79984 107.999 -3.20016 121.999 1.79984 137.999C11.7998 151.999 30.7998 147.999 45.7998 144.999C66.7998 140.999 86.7998 142.999 106.8 147.999C87.7998 148.999 68.7998 155.999 51.7998 164.999C36.7998 173.999 23.7998 182.999 14.7998 197.999C1.79984 218.999 -4.20016 243.999 3.79984 266.999C7.79984 276.999 14.7998 286.999 25.7998 286.999C32.7998 285.999 38.7998 281.999 43.7998 275.999C59.7998 253.999 75.7998 232.999 98.7998 219.999C81.7998 240.999 72.7998 265.999 68.7998 292.999C66.7998 309.999 70.7998 325.999 78.7998 340.999C82.7998 347.999 86.7998 353.999 91.7998 359.999C95.7998 363.999 99.7998 366.999 104.8 370.999C113.8 376.999 123.8 380.999 133.8 377.999C147.8 371.999 146.8 354.999 144.8 341.999C139.8 317.999 140.8 294.999 145.8 271.999C148.8 301.999 159.8 329.999 179.8 351.999C203.8 376.999 244.8 389.999 276.8 369.999C284.8 364.999 285.8 355.999 282.8 347.999C281.8 346.999 280.8 344.999 279.8 342.999C275.8 337.999 271.8 333.999 265.8 330.999L264.8 328.999C245.8 316.999 229.8 300.999 218.8 281.999C239.8 298.999 264.8 308.999 291.8 311.999C325.8 314.999 360.8 297.999 375.8 266.999C379.8 258.999 379.8 248.999 373.8 241.999C365.8 234.999 354.8 234.999 344.8 236.999Z" />
</svg>
